<svg width="64" height="48" viewBox="0 0 64 48" fill="none" xmlns="http://www.w3.org/2000/svg">
<path d="M23.5705 23.3295C23.5705 22.5858 23.3325 22.0206 22.8566 21.6338C22.3806 21.2471 21.7707 21.0537 21.027 21.0537C19.9857 21.0537 18.9891 21.2917 18.0372 21.7677C17.1149 22.2437 16.2968 22.9428 15.5828 23.865C14.8688 24.7873 14.3036 25.9326 13.8871 27.3011C13.4706 28.6398 13.2624 30.2017 13.2624 31.9866C13.2624 33.7121 13.3814 35.1401 13.6194 36.2705C13.8871 37.401 14.2292 38.3084 14.6457 38.9926C15.092 39.6471 15.5977 40.1082 16.1629 40.376C16.7282 40.6437 17.3232 40.7776 17.9479 40.7776C18.7214 40.7776 19.4502 40.5842 20.1345 40.1975C20.8187 39.781 21.4137 39.2604 21.9195 38.6356C22.4252 38.0109 22.8268 37.3118 23.1243 36.5383C23.4218 35.7648 23.5705 34.9913 23.5705 34.2178V23.3295ZM16.4753 3.78418C15.4638 3.78418 14.5267 3.90318 13.664 4.14117C12.8013 4.37917 12.0575 4.67666 11.4328 5.03365C10.808 5.39065 10.3172 5.79226 9.96018 6.23851C9.60319 6.655 9.42469 7.05661 9.42469 7.44336C9.42469 7.8896 9.64782 8.21684 10.0941 8.42509C10.57 8.60358 11.0907 8.8267 11.6559 9.09445C12.2211 9.33244 12.7269 9.68944 13.1731 10.1654C13.6491 10.6117 13.8871 11.3108 13.8871 12.2628C13.8871 12.8875 13.7532 13.4676 13.4855 14.0031C13.2475 14.5088 12.9054 14.97 12.4591 15.3865C12.0426 15.7732 11.5369 16.0856 10.9419 16.3236C10.3767 16.5318 9.78169 16.6359 9.15695 16.6359C7.49098 16.6359 6.13738 16.0707 5.09615 14.9402C4.08467 13.8097 3.57893 12.3074 3.57893 10.4332C3.57893 8.61846 4.05492 7.07149 5.00691 5.79226C5.95889 4.48329 7.19349 3.41231 8.71071 2.57933C10.2577 1.74634 11.998 1.13648 13.9317 0.749738C15.8654 0.333246 17.7992 0.125 19.7329 0.125C22.0533 0.125 24.2697 0.37787 26.3819 0.88361C28.4941 1.38935 30.3534 2.19258 31.9599 3.29331C33.5961 4.39404 34.8902 5.79226 35.8422 7.48798C36.8239 9.1837 37.3148 11.2364 37.3148 13.6461V38.8587C37.3148 39.1265 37.3296 39.424 37.3594 39.7512C37.3891 40.0785 37.4635 40.376 37.5825 40.6437C37.7015 40.9115 37.88 41.1346 38.118 41.3131C38.356 41.4916 38.6981 41.5808 39.1444 41.5808C39.6799 41.5808 40.1707 41.3874 40.617 41.0007C41.093 40.5842 41.5094 40.1677 41.8664 39.7512L42.982 40.6883C42.5358 41.3131 42.0003 41.9973 41.3756 42.741C40.7508 43.4848 39.9922 44.1839 39.0997 44.8384C38.2073 45.4929 37.166 46.0432 35.9761 46.4895C34.7861 46.9357 33.4325 47.1588 31.9153 47.1588C30.041 47.1588 28.3751 46.6085 26.9174 45.5077C25.4596 44.3773 24.5076 42.6518 24.0614 40.3313C23.1094 41.6106 22.1128 42.6815 21.0716 43.5443C20.0601 44.407 19.0189 45.1061 17.9479 45.6416C16.8769 46.1771 15.7911 46.5638 14.6903 46.8018C13.6194 47.0398 12.5335 47.1588 11.4328 47.1588C10.0048 47.1588 8.62146 46.9357 7.28274 46.4895C5.94401 46.0432 4.73916 45.3441 3.66818 44.3921C2.62695 43.4104 1.77909 42.1461 1.12461 40.5991C0.499869 39.0521 0.1875 37.163 0.1875 34.9318C0.1875 32.2246 0.72299 30.0083 1.79397 28.2828C2.86495 26.5574 4.26317 25.1145 5.98864 23.9543C7.74385 22.7643 9.72219 21.7528 11.9236 20.9198C14.1549 20.0869 16.4307 19.2093 18.7511 18.287C20.4766 17.6028 21.7261 16.5913 22.4996 15.2526C23.3028 13.8841 23.7044 12.4859 23.7044 11.0579C23.7044 8.85645 23.0499 7.10124 21.741 5.79226C20.4617 4.45354 18.7065 3.78418 16.4753 3.78418Z" fill="#6366F1"/>
<path d="M48.917 39.662C48.917 38.6207 49.1104 37.639 49.4972 36.7168C49.8839 35.7946 50.4045 34.9913 51.059 34.3071C51.7432 33.6228 52.5465 33.0874 53.4687 32.7006C54.3909 32.2841 55.3727 32.0759 56.4139 32.0759C57.4551 32.0759 58.4369 32.2841 59.3591 32.7006C60.2813 33.0874 61.0846 33.6228 61.7688 34.3071C62.453 34.9913 62.9885 35.7946 63.3753 36.7168C63.7918 37.639 64 38.6207 64 39.662C64 40.733 63.7918 41.7296 63.3753 42.6518C62.9885 43.5443 62.453 44.3326 61.7688 45.0169C61.0846 45.6714 60.2813 46.192 59.3591 46.5787C58.4369 46.9655 57.4551 47.1588 56.4139 47.1588C55.3727 47.1588 54.3909 46.9655 53.4687 46.5787C52.5465 46.192 51.7432 45.6714 51.059 45.0169C50.4045 44.3326 49.8839 43.5443 49.4972 42.6518C49.1104 41.7296 48.917 40.733 48.917 39.662Z" fill="#6366F1"/>
</svg>
